<?xml version="1.0" encoding="utf-8"?>
<!-- Generator: Adobe Illustrator 21.1.0, SVG Export Plug-In . SVG Version: 6.00 Build 0)  -->
<svg version="1.1" id="Layer_1" xmlns="http://www.w3.org/2000/svg" xmlns:xlink="http://www.w3.org/1999/xlink" x="0px" y="0px"
	 viewBox="0 0 200 200" style="enable-background:new 0 0 200 200;" xml:space="preserve">
<style type="text/css">
	.st0{fill:url(#SVGID_1_);stroke:#FFFFFF;stroke-width:7;stroke-miterlimit:10;}
	.st1{fill:#FFFFFF;}
</style>
<g>
	
		<linearGradient id="SVGID_1_" gradientUnits="userSpaceOnUse" x1="165.3206" y1="-11.1354" x2="34.6821" y2="215.137" gradientTransform="matrix(1 0 0 -1 0 202)">
		<stop  offset="0" style="stop-color:#173F56"/>
		<stop  offset="1" style="stop-color:#417685"/>
	</linearGradient>
	<path class="st0" d="M56.2,196C27.9,196,5,173,5,144.8V4h138.9C172.1,4,195,27,195,55.2V196H56.2z"/>
</g>
<path class="st1" d="M74.2,88.1c0,7-2,12.3-5.9,15.7c-3.9,3.5-9.6,5.2-17,5.2c-2.3,0-4.7-0.2-7.1-0.7c-2.4-0.5-4.5-1.3-6.5-2.4
	s-3.6-2.6-4.9-4.5c-1.3-1.9-2.1-4.1-2.3-6.9h10.3c0.3,1.4,0.8,2.6,1.5,3.5s1.6,1.6,2.6,2.1s2.1,0.8,3.3,1c1.2,0.1,2.5,0.2,3.8,0.2
	c4.1,0,7.2-1,9.1-3.1c1.9-2,2.9-5,2.9-8.8v-7.1h-0.2c-1.4,2.6-3.4,4.6-5.9,6s-5.2,2.2-8.1,2.2c-3.7,0-6.9-0.6-9.5-1.9
	s-4.8-3.1-6.5-5.3c-1.7-2.3-3-4.9-3.7-7.8c-0.8-2.9-1.2-6.1-1.2-9.5c0-3.1,0.5-6.1,1.4-8.9c1-2.8,2.3-5.3,4.1-7.4
	c1.8-2.1,4-3.8,6.6-5.1s5.6-1.9,8.9-1.9c2.9,0,5.7,0.6,8.1,1.8c2.5,1.2,4.4,3.2,5.7,5.8h0.2v-6.4h10.3
	C74.2,43.9,74.2,88.1,74.2,88.1z M51.4,82.4c2.3,0,4.2-0.5,5.8-1.4s2.9-2.2,3.9-3.7s1.7-3.3,2.2-5.2c0.5-2,0.7-3.9,0.7-5.9
	s-0.2-3.9-0.7-5.8c-0.5-1.9-1.2-3.5-2.2-5c-1-1.4-2.3-2.6-3.9-3.4c-1.6-0.8-3.5-1.3-5.7-1.3c-2.3,0-4.2,0.5-5.8,1.4
	c-1.6,1-2.8,2.2-3.8,3.7s-1.7,3.3-2.1,5.2c-0.4,2-0.6,3.9-0.6,5.8s0.2,3.8,0.7,5.6c0.5,1.8,1.2,3.5,2.2,4.9s2.3,2.6,3.8,3.5
	C47.4,81.9,49.2,82.4,51.4,82.4z"/>
<path class="st1" d="M126.8,43.9H138l11.8,35.8h0.2l11.4-35.8H172l-16.7,46.6h-11.5L126.8,43.9z"/>
<g>
	<path class="st1" d="M29.1,140.4c0-3.6,0.5-7,1.6-10.1c1.1-3.1,2.6-5.9,4.6-8.2c2-2.3,4.5-4.1,7.4-5.5c2.9-1.3,6.2-2,9.9-2
		c2.9,0,5.4,0.4,7.5,1.1c2.1,0.8,3.9,1.7,5.3,2.8c1.4,1.1,2.6,2.4,3.6,3.7c0.9,1.3,1.6,2.6,2.1,3.8c0.5,1.2,0.8,2.2,1,3
		c0.2,0.9,0.3,1.3,0.3,1.4h-3c-0.3-2.1-1-3.9-2-5.6c-1-1.6-2.3-3-3.8-4.2c-1.5-1.1-3.2-2-5.1-2.6c-1.9-0.6-3.8-0.9-5.9-0.9
		c-3.2,0-6.1,0.6-8.6,1.9c-2.5,1.2-4.7,2.9-6.4,5s-3.1,4.5-4,7.3s-1.4,5.8-1.4,9s0.5,6.2,1.4,9s2.3,5.3,4,7.3c1.7,2.1,3.9,3.8,6.4,5
		s5.4,1.9,8.6,1.9c2.4,0,4.6-0.5,6.7-1.5c2.1-1,3.9-2.3,5.5-3.9c1.6-1.6,2.8-3.5,3.8-5.7c0.9-2.1,1.5-4.4,1.6-6.7h3
		c-0.3,2.9-1,5.7-2.2,8.1c-1.2,2.5-2.7,4.6-4.5,6.4c-1.8,1.8-3.9,3.2-6.3,4.2c-2.4,1-4.9,1.5-7.7,1.5c-3.7,0-7-0.7-9.9-2
		s-5.4-3.2-7.4-5.5s-3.5-5.1-4.6-8.2C29.6,147.4,29.1,144,29.1,140.4z"/>
	<path class="st1" d="M79.5,115.8h4.3l19.2,45.9h0.1l19-45.9h4.3V165h-3v-45.5h-0.1L104.6,165h-3l-19-45.5h-0.1V165h-3V115.8z"/>
	<path class="st1" d="M167.4,129.9c-0.1-2.1-0.5-4-1.3-5.5c-0.8-1.6-1.9-2.9-3.3-3.9c-1.4-1.1-3-1.8-4.9-2.4c-1.9-0.5-4-0.8-6.2-0.8
		c-1.4,0-2.9,0.2-4.4,0.5s-3.1,0.9-4.4,1.7c-1.4,0.8-2.5,1.9-3.3,3.2c-0.9,1.4-1.3,3-1.3,5.1c0,2,0.5,3.6,1.4,4.8
		c1,1.2,2.2,2.2,3.8,3s3.4,1.4,5.4,1.8c2,0.5,4.1,0.9,6.1,1.3c2.1,0.4,4.2,0.9,6.2,1.5s3.8,1.4,5.4,2.3c1.6,1,2.9,2.3,3.8,3.9
		c1,1.6,1.4,3.6,1.4,6c0,2.6-0.6,4.7-1.7,6.5c-1.1,1.7-2.5,3.2-4.2,4.3s-3.5,1.9-5.6,2.4c-2,0.5-4,0.7-5.9,0.7
		c-2.9,0-5.6-0.3-8.1-0.9c-2.5-0.6-4.7-1.6-6.6-3c-1.9-1.4-3.4-3.2-4.4-5.4s-1.6-4.9-1.6-8.1h3c-0.1,2.7,0.3,5,1.2,6.9
		s2.2,3.4,3.8,4.6c1.6,1.2,3.6,2.1,5.8,2.6s4.5,0.8,7,0.8c1.5,0,3-0.2,4.7-0.6c1.7-0.4,3.2-1,4.6-1.9c1.4-0.9,2.6-2,3.5-3.4
		s1.4-3.2,1.4-5.4c0-2.1-0.5-3.8-1.4-5.1c-1-1.3-2.2-2.4-3.8-3.2s-3.4-1.4-5.4-1.9s-4.1-0.9-6.2-1.3c-2.1-0.4-4.1-0.9-6.1-1.4
		c-2-0.6-3.8-1.3-5.4-2.2c-1.6-0.9-2.8-2.2-3.8-3.7s-1.4-3.4-1.4-5.8c0-2.3,0.5-4.4,1.5-6c1-1.7,2.3-3,3.9-4.1s3.4-1.8,5.3-2.3
		c2-0.5,3.9-0.7,5.9-0.7c2.6,0,5,0.3,7.2,0.9s4.2,1.5,5.9,2.7s3,2.8,4,4.7c1,1.9,1.6,4.3,1.7,7h-3.2L167.4,129.9L167.4,129.9z"/>
</g>
<g>
	<g>
		<path class="st1" d="M101.8,68.9c-5,0-9.1,4.1-9.1,9.1s4.1,9.1,9.1,9.1s9.1-4.1,9.1-9.1S106.8,68.9,101.8,68.9z"/>
	</g>
	<g>
		<path class="st1" d="M113.1,67.2c2.7,2.8,4.3,6.6,4.3,10.8c0,5.3-2.7,10-6.7,12.8c7.5-2.3,13.7-7.9,16.5-14.7
			c3.8-9.4,0.3-16.5-5.7-23c0.2,0.8,0.3,1.7,0.3,2.6C121.8,61.2,118.1,65.8,113.1,67.2z"/>
	</g>
	<g>
		<path class="st1" d="M102.9,55.7c0,3.8,3.1,6.9,6.9,6.9s7-3.1,7-6.9c0-3.8-3.1-6.9-6.9-6.9C106,48.8,102.9,51.9,102.9,55.7z"/>
	</g>
	<g>
		<path class="st1" d="M89.9,88.1c-2.3-2.7-3.7-6.2-3.7-10.1c0-8,6-14.6,13.8-15.5c-1.3-1.9-2.1-4.3-2.1-6.8c0-6.6,5.4-11.9,12-11.9
			c0.6,0,1.1,0,1.6,0.1c-3.9-3.4-7.8-6.8-10.9-10.5c1.6,16.4-14.9,10.4-21,25.5C75.4,69,79.1,81.5,89.9,88.1z"/>
	</g>
</g>
</svg>
