<svg id="Layer_1" xmlns="http://www.w3.org/2000/svg" viewBox="0 0 200 200"><style>.st0{fill:url(#SVGID_1_);stroke:#fff;stroke-width:7;stroke-miterlimit:10}.st1{fill:#fff}</style><linearGradient id="SVGID_1_" gradientUnits="userSpaceOnUse" x1="165.321" y1="-609.135" x2="34.682" y2="-382.863" gradientTransform="matrix(1 0 0 -1 0 -396)"><stop offset="0" stop-color="#173f56"/><stop offset="1" stop-color="#417685"/></linearGradient><path class="st0" d="M56.2 196C27.9 196 5 173 5 144.8V4h138.9C172.1 4 195 27 195 55.2V196H56.2z"/><path class="st1" d="M74.2 88.1c0 7-2 12.3-5.9 15.7-3.9 3.5-9.6 5.2-17 5.2-2.3 0-4.7-.2-7.1-.7-2.4-.5-4.5-1.3-6.5-2.4s-3.6-2.6-4.9-4.5c-1.3-1.9-2.1-4.1-2.3-6.9h10.3c.3 1.4.8 2.6 1.5 3.5s1.6 1.6 2.6 2.1 2.1.8 3.3 1c1.2.1 2.5.2 3.8.2 4.1 0 7.2-1 9.1-3.1 1.9-2 2.9-5 2.9-8.8v-7.1h-.2c-1.4 2.6-3.4 4.6-5.9 6s-5.2 2.2-8.1 2.2c-3.7 0-6.9-.6-9.5-1.9s-4.8-3.1-6.5-5.3c-1.7-2.3-3-4.9-3.7-7.8-.8-2.9-1.2-6.1-1.2-9.5 0-3.1.5-6.1 1.4-8.9 1-2.8 2.3-5.3 4.1-7.4 1.8-2.1 4-3.8 6.6-5.1s5.6-1.9 8.9-1.9c2.9 0 5.7.6 8.1 1.8 2.5 1.2 4.4 3.2 5.7 5.8h.2v-6.4h10.3v44.2zm-22.8-5.7c2.3 0 4.2-.5 5.8-1.4s2.9-2.2 3.9-3.7 1.7-3.3 2.2-5.2c.5-2 .7-3.9.7-5.9s-.2-3.9-.7-5.8c-.5-1.9-1.2-3.5-2.2-5-1-1.4-2.3-2.6-3.9-3.4-1.6-.8-3.5-1.3-5.7-1.3-2.3 0-4.2.5-5.8 1.4-1.6 1-2.8 2.2-3.8 3.7s-1.7 3.3-2.1 5.2c-.4 2-.6 3.9-.6 5.8s.2 3.8.7 5.6c.5 1.8 1.2 3.5 2.2 4.9s2.3 2.6 3.8 3.5c1.5 1.1 3.3 1.6 5.5 1.6zm75.4-38.5H138l11.8 35.8h.2l11.4-35.8H172l-16.7 46.6h-11.5l-17-46.6zm-97.7 96.5c0-3.6.5-7 1.6-10.1 1.1-3.1 2.6-5.9 4.6-8.2 2-2.3 4.5-4.1 7.4-5.5 2.9-1.3 6.2-2 9.9-2 2.9 0 5.4.4 7.5 1.1 2.1.8 3.9 1.7 5.3 2.8 1.4 1.1 2.6 2.4 3.6 3.7.9 1.3 1.6 2.6 2.1 3.8.5 1.2.8 2.2 1 3 .2.9.3 1.3.3 1.4h-3c-.3-2.1-1-3.9-2-5.6-1-1.6-2.3-3-3.8-4.2-1.5-1.1-3.2-2-5.1-2.6-1.9-.6-3.8-.9-5.9-.9-3.2 0-6.1.6-8.6 1.9-2.5 1.2-4.7 2.9-6.4 5s-3.1 4.5-4 7.3-1.4 5.8-1.4 9 .5 6.2 1.4 9 2.3 5.3 4 7.3c1.7 2.1 3.9 3.8 6.4 5s5.4 1.9 8.6 1.9c2.4 0 4.6-.5 6.7-1.5 2.1-1 3.9-2.3 5.5-3.9s2.8-3.5 3.8-5.7c.9-2.1 1.5-4.4 1.6-6.7h3c-.3 2.9-1 5.7-2.2 8.1-1.2 2.5-2.7 4.6-4.5 6.4-1.8 1.8-3.9 3.2-6.3 4.2s-4.9 1.5-7.7 1.5c-3.7 0-7-.7-9.9-2s-5.4-3.2-7.4-5.5-3.5-5.1-4.6-8.2c-1-2.8-1.5-6.2-1.5-9.8zm50.4-24.6h4.3l19.2 45.9h.1l19-45.9h4.3V165h-3v-45.5h-.1L104.6 165h-3l-19-45.5h-.1V165h-3v-49.2zm87.9 14.1c-.1-2.1-.5-4-1.3-5.5-.8-1.6-1.9-2.9-3.3-3.9-1.4-1.1-3-1.8-4.9-2.4-1.9-.5-4-.8-6.2-.8-1.4 0-2.9.2-4.4.5s-3.1.9-4.4 1.7c-1.4.8-2.5 1.9-3.3 3.2-.9 1.4-1.3 3-1.3 5.1 0 2 .5 3.6 1.4 4.8 1 1.2 2.2 2.2 3.8 3s3.4 1.4 5.4 1.8c2 .5 4.1.9 6.1 1.3 2.1.4 4.2.9 6.2 1.5s3.8 1.4 5.4 2.3c1.6 1 2.9 2.3 3.8 3.9 1 1.6 1.4 3.6 1.4 6 0 2.6-.6 4.7-1.7 6.5-1.1 1.7-2.5 3.2-4.2 4.3s-3.5 1.9-5.6 2.4c-2 .5-4 .7-5.9.7-2.9 0-5.6-.3-8.1-.9-2.5-.6-4.7-1.6-6.6-3-1.9-1.4-3.4-3.2-4.4-5.4s-1.6-4.9-1.6-8.1h3c-.1 2.7.3 5 1.2 6.9s2.2 3.4 3.8 4.6c1.6 1.2 3.6 2.1 5.8 2.6s4.5.8 7 .8c1.5 0 3-.2 4.7-.6 1.7-.4 3.2-1 4.6-1.9 1.4-.9 2.6-2 3.5-3.4s1.4-3.2 1.4-5.4c0-2.1-.5-3.8-1.4-5.1-1-1.3-2.2-2.4-3.8-3.2s-3.4-1.4-5.4-1.9-4.1-.9-6.2-1.3c-2.1-.4-4.1-.9-6.1-1.4-2-.6-3.8-1.3-5.4-2.2-1.6-.9-2.8-2.2-3.8-3.7s-1.4-3.4-1.4-5.8c0-2.3.5-4.4 1.5-6 1-1.7 2.3-3 3.9-4.1s3.4-1.8 5.3-2.3c2-.5 3.9-.7 5.9-.7 2.6 0 5 .3 7.2.9s4.2 1.5 5.9 2.7 3 2.8 4 4.7c1 1.9 1.6 4.3 1.7 7h-3.2v-.2z"/><path class="st1" d="M101.1 32.4s8.5 9 14.6 12.5c14.1 8 19.9 40.7-9.4 45.6-1.7.3-3.3.3-5 .3C73.8 89.3 73 56 89.5 45.9c1.5-1.4 3.2-2.3 5-3.7 5.5-2.9 7.2-5.4 6.6-9.8" id="zVySZD.tif"/></svg>