<svg id="Layer_1" data-name="Layer 1" xmlns="http://www.w3.org/2000/svg" viewBox="0 0 390.52 390.5"><defs><style>.cls-1{fill:#222e5b;stroke:#e72483;stroke-miterlimit:10;stroke-width:10px;}.cls-2{fill:#fff;}</style></defs><path class="cls-1" d="M388.26,103.3v288h-288A92.65,92.65,0,0,1,7.74,298.71v-288h288A92.65,92.65,0,0,1,388.26,103.3Z" transform="translate(-2.74 -5.75)"/><path class="cls-2" d="M120,199.28V183.19h41.58v38.05q-6.06,5.87-17.56,10.33a63.87,63.87,0,0,1-23.3,4.46q-15,0-26.13-6.28a40,40,0,0,1-16.74-18,58,58,0,0,1-5.61-25.44A55,55,0,0,1,78.5,159.8,42.14,42.14,0,0,1,96.81,142q9.18-4.75,22.87-4.76,17.79,0,27.79,7.46t12.87,20.63l-19.16,3.58a20.29,20.29,0,0,0-7.59-11.11q-5.57-4.06-13.91-4.07-12.65,0-20.1,8t-7.46,23.79q0,17,7.55,25.51t19.81,8.5a33.2,33.2,0,0,0,12.16-2.38,41.72,41.72,0,0,0,10.45-5.77V199.28Z" transform="translate(-2.74 -5.75)"/><path class="cls-2" d="M175,198.83a37.52,37.52,0,0,1,4.49-17.66,30.87,30.87,0,0,1,12.74-13,37.79,37.79,0,0,1,18.41-4.5q15.71,0,25.74,10.2t10,25.77q0,15.7-10.13,26T210.77,236a40.18,40.18,0,0,1-18.15-4.3,29.56,29.56,0,0,1-13.13-12.61Q175,210.75,175,198.83Zm18.76,1q0,10.29,4.89,15.76a16,16,0,0,0,24.08,0q4.85-5.48,4.85-15.9,0-10.15-4.85-15.63a16,16,0,0,0-24.08,0Q193.76,189.52,193.76,199.81Z" transform="translate(-2.74 -5.75)"/><path class="cls-2" d="M279.78,234.4l-27.89-69.19h19.22l13,35.31,3.78,11.8q1.5-4.5,1.89-5.93c.61-2,1.26-3.91,1.95-5.87l13.17-35.31h18.83l-27.5,69.19Z" transform="translate(-2.74 -5.75)"/><path class="cls-2" d="M135.94,315.46l11.27,2.84q-3.56,13.88-12.75,21.16T112,346.75q-13.75,0-22.38-5.6a35,35,0,0,1-13.12-16.23A57.88,57.88,0,0,1,72,302.11q0-13.31,5.08-23.19a34.76,34.76,0,0,1,14.46-15,42.12,42.12,0,0,1,20.63-5.14q12.78,0,21.48,6.5t12.13,18.29l-11.08,2.61q-3-9.28-8.6-13.52t-14.16-4.24q-9.81,0-16.4,4.7a24.85,24.85,0,0,0-9.26,12.63,50.82,50.82,0,0,0-2.67,16.34A52.1,52.1,0,0,0,86.74,321a23.58,23.58,0,0,0,9.84,12.11,27.6,27.6,0,0,0,14.46,4,24.2,24.2,0,0,0,16-5.46Q133.62,326.21,135.94,315.46Z" transform="translate(-2.74 -5.75)"/><path class="cls-2" d="M160.73,345.3V260.19h17l20.15,60.26q2.78,8.42,4.06,12.6,1.46-4.65,4.53-13.64l20.37-59.22h15.15V345.3H231.09V274.07L206.36,345.3H196.2l-24.61-72.45V345.3Z" transform="translate(-2.74 -5.75)"/><path class="cls-2" d="M256.28,318l10.63-.92a23.36,23.36,0,0,0,3.51,10.47,19.14,19.14,0,0,0,8.56,6.62A32.3,32.3,0,0,0,292,336.65a31.23,31.23,0,0,0,11.38-1.92,15.79,15.79,0,0,0,7.34-5.25,12.19,12.19,0,0,0,2.41-7.29,11,11,0,0,0-2.32-7q-2.33-3-7.66-5A150.87,150.87,0,0,0,288,306q-11.73-2.81-16.43-5.31a23.08,23.08,0,0,1-9.09-7.92,19.44,19.44,0,0,1-3-10.59,21.61,21.61,0,0,1,3.66-12.05,22.73,22.73,0,0,1,10.68-8.51,40.62,40.62,0,0,1,15.62-2.9,42.69,42.69,0,0,1,16.69,3.05,24.08,24.08,0,0,1,11.12,9,25.76,25.76,0,0,1,4.17,13.41l-10.79.81q-.87-8.07-5.89-12.19T290,268.67q-10.21,0-14.89,3.74a11.25,11.25,0,0,0-4.67,9A9.68,9.68,0,0,0,273.7,289q3.26,3,17,6.06t18.84,5.43q7.43,3.43,11,8.68a21.15,21.15,0,0,1,3.54,12.1,23.15,23.15,0,0,1-3.89,12.8A25.63,25.63,0,0,1,309,343.41a39,39,0,0,1-16.4,3.34q-11.56,0-19.36-3.37A27.05,27.05,0,0,1,261,333.25,28.79,28.79,0,0,1,256.28,318Z" transform="translate(-2.74 -5.75)"/><polygon class="cls-2" points="186.28 60.68 162.91 53.52 175.09 74.71 154.92 88.53 179.08 92.22 177.31 116.6 195.26 100.01 213.22 116.6 211.44 92.22 235.6 88.53 215.43 74.71 227.62 53.52 204.24 60.68 195.26 37.94 186.28 60.68"/></svg>