<?xml version="1.0" encoding="UTF-8" standalone="no"?>
<svg
   xmlns:dc="http://purl.org/dc/elements/1.1/"
   xmlns:cc="http://creativecommons.org/ns#"
   xmlns:rdf="http://www.w3.org/1999/02/22-rdf-syntax-ns#"
   xmlns:svg="http://www.w3.org/2000/svg"
   xmlns="http://www.w3.org/2000/svg"
   xmlns:sodipodi="http://sodipodi.sourceforge.net/DTD/sodipodi-0.dtd"
   xmlns:inkscape="http://www.inkscape.org/namespaces/inkscape"
   id="Layer_1"
   data-name="Layer 1"
   viewBox="0 0 500.00001 92.833702"
   version="1.1"
   sodipodi:docname="GovCMS Inline.svg"
   width="500"
   height="92.833702"
   inkscape:version="0.92.2 (5c3e80d, 2017-08-06)">
  <metadata
     id="metadata14">
    <rdf:RDF>
      <cc:Work
         rdf:about="">
        <dc:format>image/svg+xml</dc:format>
        <dc:type
           rdf:resource="http://purl.org/dc/dcmitype/StillImage" />
        <dc:title></dc:title>
      </cc:Work>
    </rdf:RDF>
  </metadata>
  <sodipodi:namedview
     pagecolor="#ffffff"
     bordercolor="#666666"
     borderopacity="1"
     objecttolerance="10"
     gridtolerance="10"
     guidetolerance="10"
     inkscape:pageopacity="0"
     inkscape:pageshadow="2"
     inkscape:window-width="1856"
     inkscape:window-height="1057"
     id="namedview12"
     showgrid="false"
     inkscape:zoom="1"
     inkscape:cx="250.05876"
     inkscape:cy="46.416851"
     inkscape:window-x="56"
     inkscape:window-y="-8"
     inkscape:window-maximized="1"
     inkscape:current-layer="Layer_1" />
  <defs
     id="defs877">
    <style
       id="style875">
      .cls-1{fill:#19305a}
    </style>
  </defs>
  <path
     id="path881"
     d="M 83.35,27.720134 V 82.830131 H 27.84 A 17.8,17.8 0 0 1 10,65.120131 V 10.000134 h 55.48 a 17.8,17.8 0 0 1 17.87,17.72 z m -40,11.42 -9.89,-3 5.15,8.91 -8.54,5.8 10.23,1.55 -0.82,10.249997 7.6,-6.999997 7.6,6.999997 -0.75,-10.239997 10.23,-1.55 -8.54,-5.8 5.15,-8.91 -9.89,3 -3.8,-9.55 z"
     class="cls-1"
     inkscape:connector-curvature="0"
     style="fill:#19305a" />
  <path
     id="path883"
     d="M 125.16347,55.833563 V 43.958348 h 30.58768 V 72.027047 A 38.576468,38.576468 0 0 1 142.79637,79.637984 47.14102,47.14102 0 0 1 125.73924,82.822702 38.540482,38.540482 0 0 1 106.469,78.180563 29.472134,29.472134 0 0 1 94.125966,64.919909 42.840752,42.840752 0 0 1 89.987633,46.153466 40.555671,40.555671 0 0 1 94.575786,26.649313 31.073489,31.073489 0 0 1 108.07036,13.532595 a 36.435331,36.435331 0 0 1 16.8592,-3.508587 q 13.11672,0 20.49376,5.505782 a 24.847995,24.847995 0 0 1 9.48217,15.203879 l -14.08832,2.644935 a 14.915994,14.915994 0 0 0 -5.59575,-8.132726 16.931183,16.931183 0 0 0 -10.25587,-3.00479 19.270242,19.270242 0 0 0 -14.82603,5.901624 q -5.50578,5.901624 -5.50578,17.542939 0,12.594929 5.57776,18.802427 a 18.604509,18.604509 0 0 0 14.61011,6.279477 24.470148,24.470148 0 0 0 8.99637,-1.799284 30.695641,30.695641 0 0 0 7.7189,-4.246291 v -8.996367 z"
     class="cls-1"
     inkscape:connector-curvature="0"
     style="fill:#19305a;stroke-width:1.79927564" />
  <path
     id="path885"
     d="m 165.76651,56.633627 a 26.409542,26.409542 0 0 1 3.1657,-12.45636 21.74701,21.74701 0 0 1 8.98097,-9.187424 26.650412,26.650412 0 0 1 12.97251,-3.165703 24.362157,24.362157 0 0 1 18.15119,7.191653 24.843895,24.843895 0 0 1 7.07121,18.168389 25.136378,25.136378 0 0 1 -7.14003,18.357646 24.086878,24.086878 0 0 1 -17.97914,7.277679 28.336493,28.336493 0 0 1 -12.80045,-3.028065 20.800741,20.800741 0 0 1 -9.25626,-8.894946 29.626861,29.626861 0 0 1 -3.1657,-14.262869 z m 13.23058,0.688195 q 0,7.260473 3.44099,11.114376 a 11.269218,11.269218 0 0 0 16.98125,0 q 3.44098,-3.853903 3.44098,-11.217599 a 16.086595,16.086595 0 0 0 -3.44098,-11.028354 11.269218,11.269218 0 0 0 -16.98125,0 q -3.44099,3.939927 -3.44099,11.131577 z"
     class="cls-1"
     inkscape:connector-curvature="0"
     style="fill:#19305a;stroke-width:1.72049141" />
  <path
     id="path887"
     d="M 243.01997,82.830176 222.45684,31.809131 h 14.26647 l 9.60692,26.032249 2.78852,8.689406 q 1.09743,-3.310254 1.38527,-4.37169 0.66566,-2.158857 1.43924,-4.317716 l 9.62491,-26.032249 h 13.88867 l -20.27528,51.021045 z"
     class="cls-1"
     inkscape:connector-curvature="0"
     style="fill:#19305a;stroke-width:1.79904962" />
  <path
     id="path889"
     d="m 334.50918,56.963201 9.32025,2.357048 a 31.379365,31.379365 0 0 1 -10.54376,17.506952 29.058301,29.058301 0 0 1 -18.6225,5.991589 q -11.37142,0 -18.56852,-4.588154 a 28.950343,28.950343 0 0 1 -10.79566,-13.422599 47.914709,47.914709 0 0 1 -3.7245,-18.892395 41.509288,41.509288 0 0 1 4.21031,-19.198269 28.788409,28.788409 0 0 1 11.96519,-12.450987 34.959924,34.959924 0 0 1 17.07512,-4.24629 28.788409,28.788409 0 0 1 17.77684,5.397826 27.960743,27.960743 0 0 1 10.03996,15.131907 l -9.17631,2.159131 a 21.771235,21.771235 0 0 0 -7.1971,-11.191494 18.946371,18.946371 0 0 0 -11.6593,-3.472601 22.778828,22.778828 0 0 0 -13.56655,3.886434 20.547727,20.547727 0 0 0 -7.66491,10.453792 42.085055,42.085055 0 0 0 -2.2131,13.530551 42.984694,42.984694 0 0 0 2.62693,15.689686 19.504147,19.504147 0 0 0 8.15072,10.021959 22.832807,22.832807 0 0 0 11.96519,3.310671 20.04393,20.04393 0 0 0 13.26066,-4.516177 23.120691,23.120691 0 0 0 7.34104,-13.45858 z"
     class="cls-1"
     inkscape:connector-curvature="0"
     style="fill:#19305a;stroke-width:1.79927564" />
  <path
     id="path891"
     d="M 355.02093,82.8337 V 10.022298 h 14.50649 l 17.24039,51.553823 q 2.38055,7.197442 3.47783,10.768276 1.24608,-3.979988 3.86841,-11.679582 L 411.54043,10.0037 h 13.01864 v 72.811403 h -9.29903 V 21.887859 L 394.09545,82.8337 h -8.6853 l -21.0902,-62.043127 v 61.987336 z"
     class="cls-1"
     inkscape:connector-curvature="0"
     style="fill:#19305a;stroke-width:1.85980594" />
  <path
     id="path893"
     d="m 434.11708,59.027479 8.7991,-0.773742 a 19.415607,19.415607 0 0 0 2.91504,8.673143 15.870775,15.870775 0 0 0 7.08967,5.398218 26.829166,26.829166 0 0 0 10.79645,2.087315 25.893473,25.893473 0 0 0 9.4109,-1.583479 13.063699,13.063699 0 0 0 6.08199,-4.354562 10.076682,10.076682 0 0 0 1.99734,-6.028015 9.1769782,9.1769782 0 0 0 -1.92537,-5.794092 14.251308,14.251308 0 0 0 -6.3339,-4.156627 124.44702,124.44702 0 0 0 -12.59586,-3.436874 64.058906,64.058906 0 0 1 -13.60352,-4.390553 19.073719,19.073719 0 0 1 -7.52153,-6.56784 16.068709,16.068709 0 0 1 -2.46518,-8.763116 17.994075,17.994075 0 0 1 3.02301,-9.968716 18.731831,18.731831 0 0 1 8.83507,-7.035683 33.540955,33.540955 0 0 1 13.00973,-2.321236 35.304375,35.304375 0 0 1 13.81945,2.519171 19.91944,19.91944 0 0 1 9.19497,7.431553 21.340973,21.340973 0 0 1 3.45486,11.102344 l -8.99704,0.66578 a 14.39526,14.39526 0 0 0 -4.87639,-10.094676 q -4.15663,-3.418874 -12.27196,-3.418874 -8.45721,0 -12.32594,3.094981 a 9.2849426,9.2849426 0 0 0 -3.83274,7.521523 8.0073633,8.0073633 0 0 0 2.73511,6.243944 q 2.6991,2.447194 14.05337,5.020347 a 93.011373,93.011373 0 0 1 15.60086,4.498522 21.37696,21.37696 0 0 1 8.99704,7.197633 17.508235,17.508235 0 0 1 2.93303,10.022692 19.16369,19.16369 0 0 1 -3.22094,10.598513 21.215014,21.215014 0 0 1 -9.24896,7.737455 32.245382,32.245382 0 0 1 -13.49555,2.663124 40.540651,40.540651 0 0 1 -16.03271,-2.789085 22.438611,22.438611 0 0 1 -10.13068,-8.385236 23.752178,23.752178 0 0 1 -3.86872,-12.613852 z"
     class="cls-1"
     inkscape:connector-curvature="0"
     style="fill:#19305a;stroke-width:1.7994076" />
</svg>
